<svg width="1024" height="1024" viewBox="0 0 1024 1024" fill="none" xmlns="http://www.w3.org/2000/svg">
<path d="M597.048 530.035C599.565 530.504 601.699 531.784 603.448 533.875C605.197 535.965 606.072 538.397 606.072 541.171C606.072 543.432 605.496 545.48 604.344 547.315C603.235 549.107 601.592 550.536 599.416 551.603C597.24 552.627 594.637 553.139 591.608 553.139H576.12V508.403H591.16C595.683 508.403 599.117 509.448 601.464 511.539C603.853 513.629 605.048 516.339 605.048 519.667C605.048 522.44 604.301 524.701 602.808 526.451C601.315 528.157 599.395 529.352 597.048 530.035ZM580.6 528.179H591.032C594.061 528.179 596.387 527.475 598.008 526.067C599.672 524.616 600.504 522.632 600.504 520.115C600.504 517.64 599.672 515.699 598.008 514.291C596.387 512.883 593.997 512.179 590.84 512.179H580.6V528.179ZM591.288 549.363C594.531 549.363 597.048 548.595 598.84 547.059C600.675 545.523 601.592 543.411 601.592 540.723C601.592 538.035 600.632 535.901 598.712 534.323C596.835 532.701 594.296 531.891 591.096 531.891H580.6V549.363H591.288ZM629.604 553.651C626.318 553.651 623.353 552.925 620.708 551.475C618.105 549.981 616.036 547.891 614.5 545.203C613.006 542.472 612.26 539.293 612.26 535.667C612.26 532.04 613.028 528.883 614.564 526.195C616.1 523.464 618.19 521.373 620.836 519.923C623.481 518.429 626.446 517.683 629.732 517.683C633.017 517.683 635.982 518.429 638.628 519.923C641.316 521.373 643.406 523.464 644.9 526.195C646.436 528.883 647.204 532.04 647.204 535.667C647.204 539.251 646.436 542.408 644.9 545.139C643.364 547.869 641.252 549.981 638.564 551.475C635.876 552.925 632.889 553.651 629.604 553.651ZM629.604 549.747C631.908 549.747 634.041 549.235 636.004 548.211C637.966 547.144 639.545 545.565 640.74 543.475C641.977 541.341 642.596 538.739 642.596 535.667C642.596 532.595 641.998 530.013 640.804 527.923C639.609 525.789 638.03 524.211 636.068 523.187C634.105 522.12 631.972 521.587 629.668 521.587C627.364 521.587 625.23 522.12 623.268 523.187C621.305 524.211 619.726 525.789 618.532 527.923C617.38 530.013 616.804 532.595 616.804 535.667C616.804 538.739 617.38 541.341 618.532 543.475C619.726 545.565 621.284 547.144 623.204 548.211C625.166 549.235 627.3 549.747 629.604 549.747ZM670.666 553.651C667.381 553.651 664.415 552.925 661.77 551.475C659.167 549.981 657.098 547.891 655.562 545.203C654.069 542.472 653.322 539.293 653.322 535.667C653.322 532.04 654.09 528.883 655.626 526.195C657.162 523.464 659.253 521.373 661.898 519.923C664.543 518.429 667.509 517.683 670.794 517.683C674.079 517.683 677.045 518.429 679.69 519.923C682.378 521.373 684.469 523.464 685.962 526.195C687.498 528.883 688.266 532.04 688.266 535.667C688.266 539.251 687.498 542.408 685.962 545.139C684.426 547.869 682.314 549.981 679.626 551.475C676.938 552.925 673.951 553.651 670.666 553.651ZM670.666 549.747C672.97 549.747 675.103 549.235 677.066 548.211C679.029 547.144 680.607 545.565 681.802 543.475C683.039 541.341 683.658 538.739 683.658 535.667C683.658 532.595 683.061 530.013 681.866 527.923C680.671 525.789 679.093 524.211 677.13 523.187C675.167 522.12 673.034 521.587 670.73 521.587C668.426 521.587 666.293 522.12 664.33 523.187C662.367 524.211 660.789 525.789 659.594 527.923C658.442 530.013 657.866 532.595 657.866 535.667C657.866 538.739 658.442 541.341 659.594 543.475C660.789 545.565 662.346 547.144 664.266 548.211C666.229 549.235 668.362 549.747 670.666 549.747ZM715.313 553.139L700.913 537.459V553.139H696.433V505.779H700.913V533.811L714.993 518.195H721.265L704.689 535.603L721.393 553.139H715.313ZM729.423 511.603C728.527 511.603 727.759 511.283 727.119 510.643C726.479 510.003 726.159 509.213 726.159 508.275C726.159 507.336 726.479 506.568 727.119 505.971C727.759 505.331 728.527 505.011 729.423 505.011C730.319 505.011 731.087 505.331 731.727 505.971C732.367 506.568 732.687 507.336 732.687 508.275C732.687 509.213 732.367 510.003 731.727 510.643C731.087 511.283 730.319 511.603 729.423 511.603ZM731.663 518.195V553.139H727.183V518.195H731.663ZM758.192 517.555C762.373 517.555 765.786 518.856 768.432 521.459C771.077 524.019 772.4 527.752 772.4 532.659V553.139H767.984V533.171C767.984 529.373 767.024 526.472 765.104 524.467C763.226 522.461 760.645 521.459 757.36 521.459C753.989 521.459 751.301 522.525 749.296 524.659C747.29 526.792 746.288 529.928 746.288 534.067V553.139H741.808V518.195H746.288V524.147C747.397 522.013 748.997 520.392 751.088 519.283C753.178 518.131 755.546 517.555 758.192 517.555ZM796.964 517.683C800.249 517.683 803.108 518.451 805.54 519.987C807.972 521.523 809.721 523.464 810.788 525.811V518.195H815.268V554.035C815.268 557.235 814.564 560.072 813.156 562.547C811.79 565.021 809.87 566.92 807.396 568.243C804.921 569.608 802.105 570.291 798.948 570.291C794.468 570.291 790.734 569.224 787.748 567.091C784.804 564.957 782.969 562.056 782.244 558.387H786.66C787.428 560.819 788.878 562.76 791.012 564.211C793.188 565.661 795.833 566.387 798.948 566.387C801.209 566.387 803.236 565.896 805.028 564.915C806.82 563.976 808.228 562.568 809.252 560.691C810.276 558.813 810.788 556.595 810.788 554.035V545.395C809.678 547.784 807.908 549.768 805.476 551.347C803.086 552.883 800.249 553.651 796.964 553.651C793.764 553.651 790.884 552.904 788.324 551.411C785.806 549.917 783.822 547.805 782.372 545.075C780.964 542.344 780.26 539.187 780.26 535.603C780.26 532.019 780.964 528.883 782.372 526.195C783.822 523.464 785.806 521.373 788.324 519.923C790.884 518.429 793.764 517.683 796.964 517.683ZM810.788 535.667C810.788 532.851 810.212 530.376 809.06 528.243C807.908 526.109 806.329 524.467 804.324 523.315C802.361 522.163 800.185 521.587 797.796 521.587C795.321 521.587 793.102 522.141 791.14 523.251C789.177 524.36 787.62 525.981 786.468 528.115C785.358 530.205 784.804 532.701 784.804 535.603C784.804 538.461 785.358 540.979 786.468 543.155C787.62 545.288 789.177 546.931 791.14 548.083C793.102 549.192 795.321 549.747 797.796 549.747C800.185 549.747 802.361 549.171 804.324 548.019C806.329 546.867 807.908 545.224 809.06 543.091C810.212 540.957 810.788 538.483 810.788 535.667Z" fill="white"/>
<path d="M212.96 464.68V463.4H235.744V464.68H229.472V551.72H235.744V553H212.96V551.72H218.848V464.68H212.96ZM264.334 463.4V519.976L305.678 463.4L306.702 464.296L283.79 495.528L317.838 553H305.934L277.262 504.488L264.334 522.28V553H253.71V463.4H264.334ZM327.001 553H325.465L363.737 463.4L365.145 462.76L397.401 553H386.521L376.537 524.84H339.161L327.001 553ZM359.769 477.224L339.673 523.56H376.153L359.769 477.224ZM409.058 464.68V463.4H461.282V464.68L416.098 551.72H454.626C457.101 551.72 459.362 551.293 461.41 550.44C463.458 549.587 464.823 548.349 465.506 546.728L466.53 547.24C466.359 547.667 466.061 548.221 465.634 548.904C465.293 549.501 464.141 550.355 462.178 551.464C460.215 552.488 457.826 553 455.01 553H405.73V551.72L450.658 464.68H409.058ZM530.904 463.4V464.68H490.584V503.08H527.96V504.36H490.584V551.72H533.72V553H479.96V463.4H530.904Z" fill="#003F15"/>
<path d="M212.96 464.68V463.4H235.744V464.68H229.472V551.72H235.744V553H212.96V551.72H218.848V464.68H212.96ZM264.334 463.4V519.976L305.678 463.4L306.702 464.296L283.79 495.528L317.838 553H305.934L277.262 504.488L264.334 522.28V553H253.71V463.4H264.334ZM327.001 553H325.465L363.737 463.4L365.145 462.76L397.401 553H386.521L376.537 524.84H339.161L327.001 553ZM359.769 477.224L339.673 523.56H376.153L359.769 477.224ZM409.058 464.68V463.4H461.282V464.68L416.098 551.72H454.626C457.101 551.72 459.362 551.293 461.41 550.44C463.458 549.587 464.823 548.349 465.506 546.728L466.53 547.24C466.359 547.667 466.061 548.221 465.634 548.904C465.293 549.501 464.141 550.355 462.178 551.464C460.215 552.488 457.826 553 455.01 553H405.73V551.72L450.658 464.68H409.058ZM530.904 463.4V464.68H490.584V503.08H527.96V504.36H490.584V551.72H533.72V553H479.96V463.4H530.904Z" fill="#003F15"/>
<path d="M212.96 464.68V463.4H235.744V464.68H229.472V551.72H235.744V553H212.96V551.72H218.848V464.68H212.96ZM264.334 463.4V519.976L305.678 463.4L306.702 464.296L283.79 495.528L317.838 553H305.934L277.262 504.488L264.334 522.28V553H253.71V463.4H264.334ZM327.001 553H325.465L363.737 463.4L365.145 462.76L397.401 553H386.521L376.537 524.84H339.161L327.001 553ZM359.769 477.224L339.673 523.56H376.153L359.769 477.224ZM409.058 464.68V463.4H461.282V464.68L416.098 551.72H454.626C457.101 551.72 459.362 551.293 461.41 550.44C463.458 549.587 464.823 548.349 465.506 546.728L466.53 547.24C466.359 547.667 466.061 548.221 465.634 548.904C465.293 549.501 464.141 550.355 462.178 551.464C460.215 552.488 457.826 553 455.01 553H405.73V551.72L450.658 464.68H409.058ZM530.904 463.4V464.68H490.584V503.08H527.96V504.36H490.584V551.72H533.72V553H479.96V463.4H530.904Z" fill="white"/>
</svg>
